<?xml version="1.0" encoding="UTF-8"?>
<svg width="1338px" height="156px" viewBox="0 0 1338 156" version="1.1" xmlns="http://www.w3.org/2000/svg" xmlns:xlink="http://www.w3.org/1999/xlink">
    <!-- Generator: Sketch 53.2 (72643) - https://sketchapp.com -->
    <title>logo</title>
    <desc>Created with Sketch.</desc>
    <g id="Page-1" stroke="none" stroke-width="1" fill="none" fill-rule="evenodd">
        <g id="logo" transform="translate(0.000000, -1.000000)" fill="#231F20">
            <path d="M775,67.5 C764.4,65.5 754.2,62 744.7,57.1 C740,54 737.3,48.7 737.6,43.1 C737.3,37.6 740,32.4 744.7,29.5 C750.1,26.4 756.3,24.8 762.5,25 C770.3,24.8 778.1,26 785.6,28.4 C792.1,30.5 798.2,33.8 803.4,38.2 L817,19 C809.7,13.1 801.3,8.6 792.3,5.7 C783.1,2.6 773.4,1 763.6,1 C750.1,0.5 736.9,4.5 725.9,12.2 C715.8,19.7 710,31.7 710.7,44.2 C709.8,56 714.8,67.6 724.1,75.1 C728.7,78.8 733.9,81.8 739.4,83.9 C747.6,86.8 756.1,89.3 764.6,91.2 C772.9,92.8 780.8,95.7 788,100 C792.4,103.1 795,108.2 794.8,113.5 C794.9,119.1 792.2,124.3 787.6,127.5 C781.8,131.2 775,133.1 768.1,132.7 C750.4,132.2 733.4,125.1 720.6,113 L704.6,132.1 C721.7,148 744.3,156.9 767.8,156.8 C781.9,157.5 795.7,153.1 806.9,144.6 C816.6,136.9 822.1,125.1 821.8,112.8 C822.6,101.6 818.3,90.7 810,83.1 C799.7,75.3 787.7,69.9 775,67.5 Z" id="Path"></path>
            <polygon id="Path" points="998.6 90.7 1046.6 90.7 1046.6 68.3 998.6 68.3 998.6 28.7 1078.8 28.7 1078.8 4.9 971.9 4.9 971.9 154.9 1081.8 154.9 1081.8 131.1 998.6 131.1"></polygon>
            <polygon id="Path" points="1122.4 90.7 1170.3 90.7 1170.3 68.3 1122.4 68.3 1122.4 28.7 1202.6 28.7 1202.6 4.9 1096.6 4.9 1096.6 154.9 1205.6 154.9 1205.6 131.1 1122.4 131.1"></polygon>
            <path d="M1337.2,58.3 C1338.4,43.2 1332.6,28.3 1321.4,18 C1310.9,9.3 1294.2,4.9 1271.3,4.9 L1219.4,4.9 L1219.4,155.1 L1244.9,155.1 L1244.9,110.9 L1271.6,110.9 C1293.8,110.9 1310.2,106.7 1321,98.3 C1332.5,88.2 1338.5,73.4 1337.2,58.3 Z M1303.6,79.9 L1303.3,79.8 C1295.1,85.9 1284.9,88.6 1274.8,87.4 L1245.1,87.4 L1245.1,27.3 L1271,27.3 C1281.6,26.5 1292.1,28.8 1301.5,33.8 C1308.6,39 1312.3,47.6 1311.2,56.3 C1311.9,64.8 1309.2,73.3 1303.6,79.9 Z" id="Shape"></path>
            <path d="M441.5,26.3 C449.2,26.1 456.9,27.5 464,30.4 C471.6,33.9 478.5,38.8 484.4,44.7 L500.6,27 C485.8,10.2 464.3,0.8 441.9,1.3 C420.3,0.7 399.4,8.7 383.8,23.6 C353.5,54.5 353.5,103.8 383.8,134.7 C399,149.4 419.6,157.4 440.8,156.7 C463.2,156.9 484.5,147.1 499,130.2 L482.6,113.5 C476.7,119.2 470,123.9 462.7,127.5 C455.5,130.6 447.8,132.1 440,131.9 C426.1,132 412.9,126.3 403.4,116.3 C393.2,106.2 387.6,92.4 388,78.1 C387.6,64.2 393,50.7 403.1,41 C413.4,31.2 427.2,25.9 441.5,26.3 Z" id="Path"></path>
            <polygon id="Path" points="641.2 4.9 608.8 4.9 539.7 78 539.7 4.9 514.2 4.9 514.5 154.7 540 154.7 540 112.7 562 89.1 612 154.7 642.2 154.7 580.6 70.5"></polygon>
            <polygon id="Path" points="278.4 4.9 211.9 154.8 239.1 154.8 254.3 120.6 316.6 120.6 306.2 97.3 264.6 97.3 292.1 35.5 319.5 97.3 329.8 120.6 345 154.8 372.2 154.8 305.7 4.9"></polygon>
            <polygon id="Path" points="159.7 4.9 134.2 4.9 134.2 154.8 198.8 154.8 209.4 130.7 159.7 130.7"></polygon>
            <rect id="Rectangle" x="929.8" y="4.9" width="25.5" height="149.9"></rect>
            <polygon id="Path" points="861.4 4.9 835.9 4.9 835.9 154.8 861.4 154.8 861.4 93.5 917.6 93.5 917.6 69.9 861.4 69.9"></polygon>
            <path d="M90.8,77.7 L96.2,75.2 C98.2,74.1 100,72.8 101.8,71.4 C109.7,64.9 113.9,55 113,44.9 C113.1,35.1 109.4,25.6 102.7,18.4 C98.2,13.7 92.4,10.3 86.1,8.5 C77.4,5.9 68.4,4.7 59.4,4.9 L0.7,4.9 L0.7,154.7 L66.8,154.7 C87.4,154.8 101.9,150.2 110.4,141.1 C117.5,133.6 121.3,123.7 121.3,113.4 C121.5,105 118.6,96.8 113.2,90.3 C107.3,83.8 99.4,79.3 90.8,77.7 Z M26.2,28.1 L58.8,28.1 C66,27.6 73.3,29.2 79.6,32.8 C84.3,36.5 86.8,42.3 86.3,48.3 C86.3,60.7 77.1,67 58.7,67 L26.3,67 L26.3,28.1 L26.2,28.1 Z M87.6,126.8 C81,130.1 73.6,131.6 66.1,131.2 L26.2,131.2 L26.2,90.2 L62.8,90.2 C84.2,90.2 95,96.8 95,110.1 C95.8,116.7 92.9,123.1 87.6,126.8 Z" id="Shape"></path>
        </g>
    </g>
</svg>