<?xml version="1.0" encoding="UTF-8"?>
<svg width="109px" height="54px" viewBox="0 0 109 54" version="1.1" xmlns="http://www.w3.org/2000/svg" xmlns:xlink="http://www.w3.org/1999/xlink">
    <!-- Generator: Sketch 48.1 (47250) - http://www.bohemiancoding.com/sketch -->
    <title>Group 4 Copy</title>
    <desc>Created with Sketch.</desc>
    <defs></defs>
    <g id="OPTION_2_1440PX" stroke="none" stroke-width="1" fill="none" fill-rule="evenodd" transform="translate(-120.000000, -15.000000)">
        <g id="Group-4-Copy" transform="translate(120.000000, 15.000000)" fill="#1B1B1B">
            <path d="M37.9272397,18.7403315 C39.2475434,19.6491758 39.9076853,20.8867325 39.9076853,22.4530387 C39.9076853,23.535917 39.5874672,24.4785871 38.9470214,25.2810773 C38.3065755,26.0835675 37.434597,26.6298328 36.3310596,26.9198895 C37.6710693,27.171272 38.7253259,27.7562109 39.4938608,28.6747238 C40.2623958,29.5932366 40.6466576,30.7196066 40.6466576,32.0538674 C40.6466576,33.7942076 39.9471042,35.167122 38.5479764,36.1726519 C37.1488485,37.1781818 35.2472456,37.6809392 32.8431105,37.6809392 L23,37.6809392 L23,17.3770718 L32.5179627,17.3770718 C34.8038617,17.3770718 36.6069359,17.8314872 37.9272397,18.7403315 Z M34.3653934,24.9620166 C34.867897,24.5656058 35.1191451,24.0096721 35.1191451,23.2941989 C35.1191451,22.5980628 34.867897,22.0566318 34.3653934,21.6698895 C33.8628897,21.2831472 33.1682627,21.0994474 32.2814916,21.1187845 L27.6703047,21.1187845 L27.6703047,25.5566298 L32.2814916,25.5566298 C33.1682627,25.5566298 33.8628897,25.3584274 34.3653934,24.9620166 Z M34.8826739,33.2866022 C35.5132668,32.8515172 35.8285584,32.2472414 35.8285584,31.4737569 C35.8285584,30.7389466 35.5132668,30.1588419 34.8826739,29.7334254 C34.2520811,29.3080089 33.385029,29.1049723 32.2814916,29.1243094 L27.6703047,29.1243094 L27.6703047,33.9392265 L32.2814916,33.9392265 C33.385029,33.9392265 34.2520811,33.7216873 34.8826739,33.2866022 Z M57.9829468,21.5103591 C56.7907323,21.1332854 55.7709607,20.9447514 54.9236016,20.9447514 C54.1156546,20.9447514 53.4752184,21.0897776 53.0022738,21.3798343 C52.5293291,21.669891 52.2928604,22.0953011 52.2928604,22.6560773 C52.2928604,23.3715505 52.6327842,23.9178158 53.3126421,24.2948895 C53.9925,24.6719632 55.0418301,25.0635339 56.4606639,25.4696133 C57.8794978,25.8756926 59.0470623,26.2817659 59.9633925,26.6878453 C60.8797226,27.0939247 61.6630254,27.7030346 62.3133242,28.5151934 C62.9636231,29.3273521 63.2887676,30.4005458 63.2887676,31.7348066 C63.2887676,33.0303932 62.9389909,34.1470948 62.239427,35.0849448 C61.5398631,36.0227947 60.5792088,36.733423 59.3574352,37.2168508 C58.1356616,37.7002787 56.7464077,37.941989 55.1896317,37.941989 C53.5146195,37.941989 51.869191,37.6519366 50.253297,37.0718232 C48.6374029,36.4917098 47.238296,35.6989001 46.0559345,34.6933702 L47.9181446,30.9516575 C48.962564,31.8798389 50.1646135,32.6243066 51.5243292,33.1850829 C52.884045,33.7458592 54.125506,34.0262431 55.2487494,34.0262431 C56.2143447,34.0262431 56.9680888,33.8522117 57.5100045,33.5041436 C58.0519202,33.1560756 58.322874,32.6533182 58.322874,31.9958564 C58.322874,31.4737543 58.140596,31.04351 57.7760346,30.7051105 C57.4114731,30.366711 56.9483884,30.0911613 56.3867667,29.878453 C55.825145,29.6657448 55.0516951,29.4240345 54.0663938,29.1533149 C52.64756,28.7665727 51.4898484,28.3798362 50.5932242,27.9930939 C49.6966,27.6063517 48.9231501,27.0165785 48.2728513,26.2237569 C47.6225525,25.4309353 47.2974079,24.3770784 47.2974079,23.0621547 C47.2974079,21.8439166 47.6324053,20.7755571 48.3024102,19.8570442 C48.9724151,18.9385313 49.9084372,18.2327373 51.1105048,17.7396409 C52.3125723,17.2465445 53.7116791,17 55.3078672,17 C56.726701,17 58.1258079,17.2030366 59.5052296,17.609116 C60.8846514,18.0151954 62.1064067,18.5566265 63.1705321,19.2334254 L61.3674397,23.0331492 C60.3033144,22.3950244 59.1751613,21.8874328 57.9829468,21.5103591 Z M82.753297,21.7714088 C81.7975547,21.2976496 80.8369004,21.0607735 79.8713051,21.0607735 C78.7086496,21.0607735 77.6445402,21.3411574 76.678945,21.9019337 C75.7133497,22.46271 74.9546791,23.2265145 74.4029104,24.1933702 C73.8511417,25.1602258 73.5752615,26.2334195 73.5752615,27.4129834 C73.5752615,28.5925473 73.8511417,29.6705752 74.4029104,30.6470994 C74.9546791,31.6236237 75.7133497,32.3970966 76.678945,32.9675414 C77.6445402,33.5379863 78.7086496,33.8232044 79.8713051,33.8232044 C80.7974883,33.8232044 81.7384369,33.6056652 82.6941792,33.1705801 C83.6499214,32.7354951 84.5021942,32.1505562 85.2510232,31.4157459 L88,34.3453039 C86.8964626,35.4668564 85.6008108,36.3563503 84.1130059,37.0138122 C82.625201,37.671274 81.132492,38 79.634834,38 C77.6051134,38 75.7626276,37.5407504 74.1073215,36.6222376 C72.4520154,35.7037247 71.1514372,34.441997 70.205548,32.8370166 C69.2596588,31.2320362 68.7867212,29.44338 68.7867212,27.4709945 C68.7867212,25.517946 69.2695116,23.7486267 70.2351069,22.1629834 C71.2007021,20.5773401 72.5259124,19.330115 74.2107776,18.4212707 C75.8956428,17.5124264 77.7627607,17.058011 79.8121874,17.058011 C81.3098453,17.058011 82.787775,17.362566 84.2460209,17.9716851 C85.7042668,18.5808042 86.9457278,19.4074533 87.9704411,20.4516575 L85.2510232,23.7292818 C84.5416063,22.8977859 83.7090392,22.2451681 82.753297,21.7714088 Z" id="BSC"></path>
            <path d="M3.68243243,51.0410959 L105.317568,51.0410959 L105.317568,3.69863014 L3.68243243,3.69863014 L3.68243243,51.0410959 Z M0,0 L109,0 L109,54 L0,54 L0,0 Z" id="Rectangle" fill-rule="nonzero"></path>
        </g>
    </g>
</svg>