<?xml version="1.0" encoding="UTF-8"?>
<svg width="20px" height="20px" viewBox="0 0 20 20" version="1.1" xmlns="http://www.w3.org/2000/svg" xmlns:xlink="http://www.w3.org/1999/xlink">
    <g id="Variables" stroke="none" stroke-width="1" fill="none" fill-rule="evenodd" transform="translate(-489.000000, -925.000000)">
        <path d="M490.103809,925 C489.494129,925 489,925.494127 489,926.103805 L489,943.89612 C489,944.505723 489.494129,945 490.103809,945 L499.682668,945 L499.682668,937.254932 L497.07624,937.254932 L497.07624,934.236591 L499.682668,934.236591 L499.682668,932.010622 C499.682668,929.427359 501.260373,928.020738 503.564809,928.020738 C504.668692,928.020738 505.617384,928.102868 505.893823,928.139587 L505.893823,930.8393 L504.295586,930.840049 C503.042354,930.840049 502.799636,931.435565 502.799636,932.309466 L502.799636,934.236591 L505.788613,934.236591 L505.399469,937.254932 L502.799636,937.254932 L502.799636,945 L507.896191,945 C508.505796,945 509,944.505723 509,943.89612 L509,926.103805 C509,925.494127 508.505796,925 507.896191,925 L490.103809,925 Z" id="Fill-1-Copy" fill="#000000"></path>
    </g>
</svg>