<?xml version="1.0" encoding="UTF-8"?>
<svg width="20px" height="20px" viewBox="0 0 20 20" version="1.1" xmlns="http://www.w3.org/2000/svg" xmlns:xlink="http://www.w3.org/1999/xlink">
    <g id="Variables" stroke="none" stroke-width="1" fill="none" fill-rule="evenodd" transform="translate(-558.000000, -925.000000)">
        <path d="M575.043251,942.042696 L572.077058,942.042696 L572.077058,937.4009 C572.077058,936.294203 572.058168,934.870274 570.535904,934.870274 C568.991972,934.870274 568.75641,936.076419 568.75641,937.322009 L568.75641,942.042696 L565.79355,942.042696 L565.79355,932.497986 L568.636962,932.497986 L568.636962,933.803022 L568.678074,933.803022 C569.073641,933.052446 570.041446,932.261313 571.484263,932.261313 C574.488236,932.261313 575.043251,934.237479 575.043251,936.808106 L575.043251,942.042696 Z M562.449012,931.194061 C561.496208,931.194061 560.727854,930.423484 560.727854,929.473458 C560.727854,928.523987 561.496208,927.75341 562.449012,927.75341 C563.397928,927.75341 564.167949,928.523987 564.167949,929.473458 C564.167949,930.423484 563.397928,931.194061 562.449012,931.194061 Z M560.963416,942.042696 L563.932943,942.042696 L563.932943,932.497986 L560.963416,932.497986 L560.963416,942.042696 Z M576.520514,925 L559.475041,925 C558.661129,925 558,925.645573 558,926.442262 L558,943.557182 C558,944.353871 558.661129,945.000556 559.475041,945.000556 L576.520514,945.000556 C577.336093,945.000556 578,944.353871 578,943.557182 L578,926.442262 C578,925.645573 577.336093,925 576.520514,925 Z" id="Fill-4" fill="#1A1919"></path>
    </g>
</svg>