<?xml version="1.0" encoding="UTF-8"?>
<svg width="20px" height="21px" viewBox="0 0 20 21" version="1.1" xmlns="http://www.w3.org/2000/svg" xmlns:xlink="http://www.w3.org/1999/xlink">
    <defs>
        <polygon id="path-1" points="0 20.0435185 0 0.0461574074 20 0.0461574074 20 20.0435185"></polygon>
    </defs>
    <g id="Variables" stroke="none" stroke-width="1" fill="none" fill-rule="evenodd" transform="translate(-633.000000, -925.000000)">
        <g id="snap-ghost-yellow" transform="translate(633.000000, 925.000000)">
            <g id="Group-3">
                <mask id="mask-2" fill="white">
                    <use xlink:href="#path-1"></use>
                </mask>
                <g id="Clip-2"></g>
                <path d="M16.8132407,0.0461574074 C18.5730093,0.0461574074 20,1.47296296 20,3.23328704 L20,16.8594907 C20,18.6193519 18.5730093,20.0462963 16.8132407,20.0462963 L3.18699074,20.0462963 C1.42699074,20.0462963 0,18.6193519 0,16.8594907 L0,3.23328704 C0,1.47296296 1.42699074,0.0461574074 3.18699074,0.0461574074 L16.8132407,0.0461574074" id="Fill-1" fill="#000000" mask="url(#mask-2)"></path>
            </g>
            <path d="M10.0734259,16.9223148 C10.0356944,16.9223148 9.99856481,16.92125 9.96148148,16.9194907 L9.96138889,16.9194907 C9.93777778,16.9212963 9.91300926,16.9223148 9.88828704,16.9223148 C9.02032407,16.9223148 8.46319444,16.5285185 7.92449074,16.1476389 C7.5525,15.8847685 7.20148148,15.6366667 6.78787037,15.5677778 C6.58606481,15.5343519 6.38518519,15.5174074 6.19101852,15.5174074 C5.8412963,15.5174074 5.56541667,15.5713889 5.36398148,15.610787 C5.24157407,15.6347222 5.13597222,15.6553241 5.05574074,15.6553241 C4.97189815,15.6553241 4.88101852,15.6371759 4.84157407,15.5022685 C4.80722222,15.3853704 4.78240741,15.2721759 4.75856481,15.1626852 C4.69703704,14.8808333 4.65333333,14.7075463 4.53523148,14.6893981 C3.15856481,14.4767593 2.76453704,14.1868056 2.67671296,13.9810648 C2.66425926,13.9516667 2.65717593,13.9221759 2.65550926,13.8930093 C2.65101852,13.8139815 2.70703704,13.7441667 2.78513889,13.7314352 C4.90138889,13.3829167 5.85037037,11.22 5.88976852,11.1281481 C5.89083333,11.1256019 5.89199074,11.1231481 5.89314815,11.1206019 C6.02268519,10.8581481 6.04805556,10.6302778 5.9687963,10.4435185 C5.82356481,10.10125 5.34990741,9.95083333 5.03638889,9.85138889 C4.95967593,9.82712963 4.88694444,9.80416667 4.82958333,9.78148148 C4.20393519,9.53416667 4.15189815,9.28027778 4.17643519,9.15087963 C4.21837963,8.93041667 4.51305556,8.77675926 4.75134259,8.77675926 C4.81666667,8.77675926 4.87421296,8.78833333 4.92259259,8.81092593 C5.20402778,8.94277778 5.45768519,9.00958333 5.67652778,9.00958333 C5.97893519,9.00958333 6.11092593,8.8825 6.12708333,8.86583333 C6.11939815,8.72259259 6.10986111,8.57300926 6.10009259,8.41865741 C6.03708333,7.41810185 5.95898148,6.17490741 6.27550926,5.46527778 C7.22421296,3.33810185 9.23601852,3.17287037 9.83,3.17287037 C9.84523148,3.17287037 10.0904167,3.17023148 10.0904167,3.17023148 L10.1256019,3.17009259 C10.7209722,3.17009259 12.7371759,3.33564815 13.6863889,5.46398148 C14.0030093,6.17398148 13.9246759,7.41828704 13.8615741,8.41805556 L13.8589352,8.46152778 C13.8501852,8.60074074 13.8417593,8.73606481 13.8346759,8.86560185 C13.8498148,8.88101852 13.9712037,8.99791667 14.2453704,9.00842593 L14.2456944,9.00842593 C14.4540278,9.00046296 14.6934722,8.93402778 14.95625,8.81092593 C15.033287,8.7749537 15.1187963,8.76736111 15.177037,8.76736111 C15.2659722,8.76736111 15.3561111,8.78458333 15.4309722,8.81583333 L15.4355093,8.81768519 C15.6480556,8.89300926 15.7873148,9.04199074 15.7902778,9.19763889 C15.7930556,9.34425926 15.6811574,9.56462963 15.1321759,9.78148148 C15.0752778,9.80384259 15.0025463,9.82694444 14.9255556,9.85138889 C14.6116667,9.95097222 14.1381944,10.10125 13.9930556,10.4434722 C13.9137037,10.6301389 13.9391204,10.8578241 14.0686111,11.120463 C14.0697685,11.1230093 14.0710648,11.125463 14.072037,11.1281481 C14.1114352,11.2199074 15.0595833,13.3822222 17.1768056,13.7311111 C17.2549537,13.7440278 17.310787,13.81375 17.3064815,13.8928241 C17.3047222,13.9225 17.2975,13.9523611 17.2848611,13.9813889 C17.1975,14.1856481 16.8037963,14.4752315 15.4266667,14.6880093 C15.3141667,14.7052778 15.2705556,14.8518981 15.2034259,15.1593056 C15.1790278,15.2712037 15.1543056,15.3810648 15.1202778,15.4966667 C15.0909259,15.5969444 15.0284259,15.6438889 14.923287,15.6438889 L14.9061574,15.6438889 C14.8332407,15.6438889 14.7294907,15.6308333 14.5980093,15.605 C14.3648611,15.5593981 14.1034722,15.5174074 13.7708796,15.5174074 C13.5766667,15.5174074 13.3756944,15.5343519 13.17375,15.5677778 C12.7606019,15.6366667 12.4098148,15.8843056 12.0385185,16.1467593 C11.4987037,16.5285185 10.9416667,16.9223148 10.0734259,16.9223148" id="Fill-4" fill="#FFFFFE"></path>
            <path d="M10.1256019,3.0150463 L10.125,3.0150463 C10.1120833,3.0150463 10.0999537,3.0150463 10.0884259,3.01527778 C10.0884259,3.01527778 9.84861111,3.01768519 9.82953704,3.01768519 C9.21236111,3.01768519 7.12060185,3.18962963 6.13375,5.40217593 C5.80185185,6.14652778 5.88143519,7.41074074 5.94523148,8.42662037 C5.95273148,8.54643519 5.96074074,8.67078704 5.96759259,8.79092593 C5.91652778,8.81921296 5.82328704,8.85439815 5.67652778,8.85439815 C5.48064815,8.85439815 5.24912037,8.7925463 4.98847222,8.67037037 C4.91925926,8.63796296 4.83949074,8.62175926 4.75134259,8.62175926 C4.44606481,8.62175926 4.08092593,8.82259259 4.02407407,9.12194444 C3.98310185,9.3375 4.07953704,9.65194444 4.7725,9.92564815 C4.8350463,9.95037037 4.91023148,9.97416667 4.98962963,9.99925926 C5.27587963,10.0901852 5.70861111,10.2275 5.82606481,10.5041204 C5.88685185,10.6474074 5.86259259,10.8318519 5.75407407,11.0521296 C5.75171296,11.0571296 5.74930556,11.062037 5.74717593,11.0671759 C5.70907407,11.155787 4.79324074,13.2435648 2.7599537,13.578287 C2.60356481,13.6040741 2.49185185,13.7435648 2.50050926,13.9017593 C2.50319444,13.9487963 2.51435185,13.9956481 2.53361111,14.0411111 C2.6862037,14.3978704 3.3300463,14.6593056 4.50212963,14.8412037 C4.5412963,14.894213 4.58199074,15.0813426 4.60694444,15.1954167 C4.63143519,15.3079167 4.65671296,15.4239352 4.69273148,15.5463426 C4.72805556,15.6666667 4.81981481,15.8105093 5.05574074,15.8105093 C5.15101852,15.8105093 5.26347222,15.7885185 5.39361111,15.762963 C5.58888889,15.7248148 5.8562963,15.6725926 6.19101852,15.6725926 C6.37666667,15.6725926 6.56907407,15.6887037 6.76282407,15.7208333 C7.14101852,15.7838426 7.46240741,16.0110185 7.83449074,16.2740278 C8.36740741,16.6508333 8.97092593,17.0774074 9.88828704,17.0774074 C9.91347222,17.0774074 9.93884259,17.0766667 9.96388889,17.0748148 C9.99365741,17.0761111 10.0323148,17.0774074 10.0734259,17.0774074 C10.9910648,17.0774074 11.5944907,16.650787 12.127037,16.2741667 C12.4999537,16.010787 12.8211111,15.7837037 13.1993056,15.7208333 C13.3927315,15.6887037 13.5851852,15.6725926 13.7708796,15.6725926 C14.0902315,15.6725926 14.3429167,15.7131944 14.568287,15.7572222 C14.7094907,15.7848611 14.8231481,15.7989352 14.9061574,15.7989352 L14.9148611,15.7990741 L14.923287,15.7990741 C15.0975463,15.7990741 15.220463,15.7069907 15.2692593,15.5399074 C15.3045833,15.42 15.3299074,15.3069907 15.3549537,15.1925463 C15.3797685,15.0788426 15.4203704,14.8925 15.4593981,14.8398611 C16.6318056,14.6578241 17.275463,14.3968056 17.4277315,14.0415741 C17.4473148,13.9961111 17.4585648,13.9488889 17.46125,13.9014352 C17.4700463,13.7431481 17.3582407,13.6038426 17.2019907,13.5781481 C15.1677315,13.2428704 14.2526852,11.1555556 14.2146759,11.067037 C14.2125,11.0619444 14.2101852,11.0568519 14.2076852,11.0519444 C14.0990741,10.831713 14.0750463,10.6474074 14.135787,10.5041204 C14.2531481,10.2275 14.6856944,10.0901852 14.9719907,9.99944444 C15.0520833,9.97402778 15.1273611,9.9500463 15.1892593,9.92564815 C15.6963889,9.72537037 15.950787,9.47939815 15.9454167,9.19458333 C15.9410185,8.97087963 15.7668056,8.7712963 15.4898611,8.67236111 L15.4890278,8.67208333 C15.3958796,8.63342593 15.2853241,8.61231481 15.177037,8.61231481 C15.1030093,8.61231481 14.9931944,8.62240741 14.8906019,8.67037037 C14.6493981,8.78342593 14.4325926,8.84486111 14.2456944,8.85324074 C14.1217593,8.8474537 14.0406481,8.8162037 13.9943981,8.79074074 C14.0002778,8.68763889 14.0068519,8.58152778 14.0138426,8.47064815 L14.0164352,8.4275463 C14.0806019,7.41097222 14.1602315,6.14564815 13.8280093,5.40078704 C12.8407407,3.18722222 10.744537,3.0150463 10.1256019,3.0150463 Z M10.1256019,3.32523148 C10.6891667,3.32527778 12.6300926,3.47648148 13.5448148,5.52717593 C13.8458796,6.20226852 13.7688889,7.42550926 13.7068981,8.40828704 C13.6970833,8.56412037 13.6875463,8.71513889 13.6798148,8.85962963 L13.6764352,8.92157407 L13.717963,8.96773148 C13.734537,8.98638889 13.8912037,9.1499537 14.2393056,9.16347222 L14.2451389,9.16361111 L14.2508333,9.16347222 C14.4809722,9.15481481 14.7403704,9.08342593 15.0221296,8.95138889 C15.0634722,8.93194444 15.1186574,8.9225 15.177037,8.9225 C15.2437037,8.9225 15.3143519,8.935 15.3726852,8.95958333 L15.3814352,8.96310185 C15.5290278,9.01481481 15.6334722,9.1125 15.6352315,9.20064815 C15.6361111,9.25078704 15.5986111,9.43041667 15.0751852,9.63712963 C15.0240741,9.65740741 14.9566204,9.67875 14.8786111,9.70337963 C14.5380093,9.81166667 14.0234259,9.97476852 13.8501852,10.3826852 C13.7525926,10.6129167 13.7791667,10.8841667 13.9294444,11.1891204 C13.9913426,11.3333796 14.9633796,13.5237037 17.1515278,13.884213 C17.1509259,13.8943519 17.1484722,13.9058796 17.1425463,13.9192593 C17.1053704,14.0066204 16.8696296,14.3081944 15.4030093,14.5345833 C15.1734259,14.57 15.1171296,14.8270833 15.0518519,15.1262963 C15.0285648,15.2332407 15.0043981,15.3411574 14.9714815,15.452963 C14.9615278,15.4867593 14.9596296,15.48875 14.923287,15.48875 C14.9183333,15.48875 14.9126852,15.48875 14.9061574,15.48875 C14.8411111,15.48875 14.7422222,15.4752315 14.6277315,15.4528241 C14.4198611,15.4121759 14.1348148,15.3623611 13.7708796,15.3623611 C13.5677778,15.3623611 13.3583333,15.38 13.1484722,15.4148148 C12.6996759,15.489537 12.334537,15.7477778 11.9478241,16.0209259 C11.42875,16.3880093 10.8922222,16.7672685 10.0734259,16.7672685 C10.0379167,16.7672685 10.0028704,16.7661111 9.96787037,16.7644444 L9.95865741,16.7639815 L9.94935185,16.7648148 C9.92925926,16.7664815 9.90902778,16.7672685 9.88828704,16.7672685 C9.06967593,16.7672685 8.53291667,16.3880093 8.01393519,16.0210648 C7.62736111,15.7477778 7.26212963,15.489537 6.81342593,15.4148148 C6.60347222,15.38 6.39416667,15.3623611 6.19101852,15.3623611 C5.82717593,15.3623611 5.54212963,15.4177778 5.33412037,15.4584722 C5.21967593,15.4809722 5.12064815,15.5001852 5.05574074,15.5001852 C5.00268519,15.5001852 5.00157407,15.4971296 4.99037037,15.4587963 C4.9575,15.3468981 4.93337963,15.2361111 4.9100463,15.1292593 C4.84472222,14.8300926 4.78819444,14.5714352 4.55888889,14.5360648 C3.09212963,14.3095833 2.85652778,14.0072685 2.81930556,13.9200926 C2.81337963,13.9065741 2.81092593,13.8947685 2.81041667,13.8844907 C4.99837963,13.5239815 5.97041667,11.3339352 6.03231481,11.1892593 C6.18259259,10.8841667 6.20930556,10.6131019 6.11162037,10.3830093 C5.93851852,9.9749537 5.42388889,9.81166667 5.08324074,9.70337963 C5.00518519,9.67884259 4.93777778,9.65740741 4.88662037,9.63712963 C4.44439815,9.4625 4.30851852,9.28657407 4.32888889,9.17990741 C4.35231481,9.05694444 4.56541667,8.93194444 4.75134259,8.93194444 C4.79319444,8.93194444 4.82972222,8.93861111 4.85685185,8.95138889 C5.15893519,9.09273148 5.43486111,9.16467593 5.67652778,9.16467593 C6.05689815,9.16467593 6.2262037,8.98768519 6.24416667,8.96763889 L6.28541667,8.92157407 L6.28203704,8.85981481 C6.27430556,8.71560185 6.26481481,8.56462963 6.2549537,8.40888889 C6.19305556,7.42611111 6.11606481,6.2037037 6.41717593,5.52847222 C7.32833333,3.48532407 9.25976852,3.32791667 9.83,3.32791667 C9.84407407,3.32791667 10.0918981,3.32546296 10.0918981,3.32546296 C10.1025463,3.32527778 10.1137037,3.32523148 10.1256019,3.32523148 Z" id="Fill-5" fill="#0B0C0A"></path>
        </g>
    </g>
</svg>