<?xml version="1.0" encoding="UTF-8"?>
<svg width="20px" height="20px" viewBox="0 0 20 20" version="1.1" xmlns="http://www.w3.org/2000/svg" xmlns:xlink="http://www.w3.org/1999/xlink">
    <g id="Variables" stroke="none" stroke-width="1" fill="none" fill-rule="evenodd" transform="translate(-667.000000, -925.000000)">
        <g id="Twitter_Social_Icon_Rounded_Square_Color" transform="translate(667.000000, 925.000000)" fill-rule="nonzero">
            <g id="Dark_Blue" fill="#000000">
                <path d="M17.5,20 L2.5,20 C1.12,20 0,18.88 0,17.5 L0,2.5 C0,1.12 1.12,0 2.5,0 L17.5,0 C18.88,0 20,1.12 20,2.5 L20,17.5 C20,18.88 18.88,20 17.5,20 Z" id="Shape"></path>
            </g>
            <g id="Logo__x2014__FIXED" transform="translate(3.750000, 4.900000)" fill="#FFFFFF">
                <path d="M3.93,10.18 C8.645,10.18 11.225,6.27 11.225,2.885 C11.225,2.775 11.225,2.665 11.22,2.555 C11.72,2.195 12.155,1.74 12.5,1.225 C12.04,1.43 11.545,1.565 11.025,1.63 C11.555,1.315 11.96,0.81 12.155,0.21 C11.66,0.505 11.11,0.715 10.525,0.83 C10.055,0.33 9.39,0.02 8.655,0.02 C7.24,0.02 6.09,1.17 6.09,2.585 C6.09,2.785 6.115,2.98 6.155,3.17 C4.025,3.065 2.135,2.04 0.87,0.49 C0.65,0.87 0.525,1.31 0.525,1.78 C0.525,2.67 0.98,3.455 1.665,3.915 C1.245,3.9 0.85,3.785 0.505,3.595 C0.505,3.605 0.505,3.615 0.505,3.63 C0.505,4.87 1.39,5.91 2.56,6.145 C2.345,6.205 2.12,6.235 1.885,6.235 C1.72,6.235 1.56,6.22 1.405,6.19 C1.73,7.21 2.68,7.95 3.8,7.97 C2.92,8.66 1.815,9.07 0.615,9.07 C0.41,9.07 0.205,9.06 0.005,9.035 C1.135,9.755 2.485,10.18 3.93,10.18" id="Shape"></path>
            </g>
        </g>
    </g>
</svg>