<?xml version="1.0" encoding="UTF-8"?>
<svg width="29px" height="20px" viewBox="0 0 29 20" version="1.1" xmlns="http://www.w3.org/2000/svg" xmlns:xlink="http://www.w3.org/1999/xlink">
    <defs>
        <polygon id="path-1" points="0.00967741935 20 0.00967741935 0.0064516129 28.3870968 0.0064516129 28.3870968 20"></polygon>
    </defs>
    <g id="Variables" stroke="none" stroke-width="1" fill="none" fill-rule="evenodd" transform="translate(-591.000000, -925.000000)">
        <g id="yt_icon_mono_light" transform="translate(591.000000, 925.000000)">
            <g id="Group-3">
                <mask id="mask-2" fill="white">
                    <use xlink:href="#path-1"></use>
                </mask>
                <g id="Clip-2"></g>
                <path d="M27.793871,3.12306452 C27.4674194,1.89370968 26.5056452,0.925645161 25.2841935,0.597096774 C23.0704839,0 14.1935484,0 14.1935484,0 C14.1935484,0 5.3166129,0 3.10290323,0.597096774 C1.8816129,0.925645161 0.919677419,1.89370968 0.593225806,3.12306452 C0,5.35112903 0,10 0,10 C0,10 0,14.6487097 0.593225806,16.8770968 C0.919677419,18.1062903 1.8816129,19.0743548 3.10290323,19.4030645 C5.3166129,20 14.1935484,20 14.1935484,20 C14.1935484,20 23.0704839,20 25.2841935,19.4030645 C26.5056452,19.0743548 27.4674194,18.1062903 27.793871,16.8770968 C28.3870968,14.6487097 28.3870968,10 28.3870968,10 C28.3870968,10 28.3870968,5.35112903 27.793871,3.12306452" id="Fill-1" fill="#222321" mask="url(#mask-2)"></path>
            </g>
            <polyline id="Fill-4" fill="#FFFFFE" points="11.2903226 14.2208065 18.7096774 10.0001613 11.2903226 5.77919355 11.2903226 14.2208065"></polyline>
        </g>
    </g>
</svg>